<mxfile host="app.diagrams.net" modified="2022-06-04T09:38:08.880Z" agent="5.0 (Windows NT 10.0; Win64; x64) AppleWebKit/537.36 (KHTML, like Gecko) Chrome/102.0.5005.61 Safari/537.36" etag="BrmGM-FYjnwyvZvhufUJ" version="17.4.5" type="github">
  <diagram id="diFwN7pn9ZgPSL2D3D19" name="Page-1">
    <mxGraphModel dx="723" dy="405" grid="1" gridSize="10" guides="1" tooltips="1" connect="1" arrows="1" fold="1" page="1" pageScale="1" pageWidth="850" pageHeight="1100" math="0" shadow="0">
      <root>
        <mxCell id="0" />
        <mxCell id="1" parent="0" />
        <mxCell id="mYWsddYuptyJ_R3F1crm-6" value="" style="rounded=0;whiteSpace=wrap;html=1;" vertex="1" parent="1">
          <mxGeometry x="310" y="20" width="290" height="870" as="geometry" />
        </mxCell>
        <mxCell id="mYWsddYuptyJ_R3F1crm-1" value="Doctor" style="shape=umlActor;verticalLabelPosition=bottom;verticalAlign=top;html=1;outlineConnect=0;" vertex="1" parent="1">
          <mxGeometry x="230" y="130" width="30" height="60" as="geometry" />
        </mxCell>
        <mxCell id="mYWsddYuptyJ_R3F1crm-13" style="edgeStyle=orthogonalEdgeStyle;rounded=0;orthogonalLoop=1;jettySize=auto;html=1;entryX=1;entryY=0.5;entryDx=0;entryDy=0;endArrow=none;endFill=0;" edge="1" parent="1" source="mYWsddYuptyJ_R3F1crm-4" target="mYWsddYuptyJ_R3F1crm-8">
          <mxGeometry relative="1" as="geometry" />
        </mxCell>
        <mxCell id="mYWsddYuptyJ_R3F1crm-15" style="edgeStyle=orthogonalEdgeStyle;rounded=0;orthogonalLoop=1;jettySize=auto;html=1;endArrow=none;endFill=0;" edge="1" parent="1" source="mYWsddYuptyJ_R3F1crm-4" target="mYWsddYuptyJ_R3F1crm-14">
          <mxGeometry relative="1" as="geometry" />
        </mxCell>
        <mxCell id="mYWsddYuptyJ_R3F1crm-17" style="edgeStyle=orthogonalEdgeStyle;rounded=0;orthogonalLoop=1;jettySize=auto;html=1;entryX=1;entryY=0.5;entryDx=0;entryDy=0;endArrow=none;endFill=0;" edge="1" parent="1" source="mYWsddYuptyJ_R3F1crm-4" target="mYWsddYuptyJ_R3F1crm-16">
          <mxGeometry relative="1" as="geometry" />
        </mxCell>
        <mxCell id="mYWsddYuptyJ_R3F1crm-4" value="Pharmacy&lt;br&gt;" style="shape=umlActor;verticalLabelPosition=bottom;verticalAlign=top;html=1;outlineConnect=0;" vertex="1" parent="1">
          <mxGeometry x="680" y="80" width="30" height="60" as="geometry" />
        </mxCell>
        <mxCell id="mYWsddYuptyJ_R3F1crm-20" style="edgeStyle=orthogonalEdgeStyle;rounded=0;orthogonalLoop=1;jettySize=auto;html=1;entryX=1;entryY=0.5;entryDx=0;entryDy=0;endArrow=none;endFill=0;" edge="1" parent="1" source="mYWsddYuptyJ_R3F1crm-5" target="mYWsddYuptyJ_R3F1crm-19">
          <mxGeometry relative="1" as="geometry" />
        </mxCell>
        <mxCell id="mYWsddYuptyJ_R3F1crm-21" style="edgeStyle=orthogonalEdgeStyle;rounded=0;orthogonalLoop=1;jettySize=auto;html=1;entryX=1;entryY=0.5;entryDx=0;entryDy=0;endArrow=none;endFill=0;" edge="1" parent="1" source="mYWsddYuptyJ_R3F1crm-5" target="mYWsddYuptyJ_R3F1crm-18">
          <mxGeometry relative="1" as="geometry" />
        </mxCell>
        <mxCell id="mYWsddYuptyJ_R3F1crm-5" value="Pharmacy Technician" style="shape=umlActor;verticalLabelPosition=bottom;verticalAlign=top;html=1;outlineConnect=0;" vertex="1" parent="1">
          <mxGeometry x="680" y="250" width="30" height="60" as="geometry" />
        </mxCell>
        <mxCell id="mYWsddYuptyJ_R3F1crm-7" value="Write prescription" style="ellipse;whiteSpace=wrap;html=1;" vertex="1" parent="1">
          <mxGeometry x="350" y="40" width="90" height="60" as="geometry" />
        </mxCell>
        <mxCell id="mYWsddYuptyJ_R3F1crm-8" value="Send prescription" style="ellipse;whiteSpace=wrap;html=1;" vertex="1" parent="1">
          <mxGeometry x="350" y="120" width="90" height="60" as="geometry" />
        </mxCell>
        <mxCell id="mYWsddYuptyJ_R3F1crm-12" style="edgeStyle=orthogonalEdgeStyle;rounded=0;orthogonalLoop=1;jettySize=auto;html=1;entryX=0;entryY=0.5;entryDx=0;entryDy=0;endArrow=none;endFill=0;" edge="1" parent="1" source="mYWsddYuptyJ_R3F1crm-1" target="mYWsddYuptyJ_R3F1crm-8">
          <mxGeometry relative="1" as="geometry" />
        </mxCell>
        <mxCell id="mYWsddYuptyJ_R3F1crm-10" style="edgeStyle=orthogonalEdgeStyle;rounded=0;orthogonalLoop=1;jettySize=auto;html=1;entryX=0;entryY=0.5;entryDx=0;entryDy=0;endArrow=none;endFill=0;" edge="1" parent="1" source="mYWsddYuptyJ_R3F1crm-1" target="mYWsddYuptyJ_R3F1crm-7">
          <mxGeometry relative="1" as="geometry">
            <Array as="points">
              <mxPoint x="305" y="160" />
              <mxPoint x="305" y="70" />
            </Array>
          </mxGeometry>
        </mxCell>
        <mxCell id="mYWsddYuptyJ_R3F1crm-14" value="Fill prescription" style="ellipse;whiteSpace=wrap;html=1;" vertex="1" parent="1">
          <mxGeometry x="480" y="45" width="80" height="50" as="geometry" />
        </mxCell>
        <mxCell id="mYWsddYuptyJ_R3F1crm-16" value="Distribute prescriptions to nurse stations" style="ellipse;whiteSpace=wrap;html=1;" vertex="1" parent="1">
          <mxGeometry x="475" y="160" width="90" height="60" as="geometry" />
        </mxCell>
        <mxCell id="mYWsddYuptyJ_R3F1crm-18" value="Review prescription" style="ellipse;whiteSpace=wrap;html=1;" vertex="1" parent="1">
          <mxGeometry x="475" y="230" width="90" height="60" as="geometry" />
        </mxCell>
        <mxCell id="mYWsddYuptyJ_R3F1crm-28" value="&amp;lt;&amp;lt;include&amp;gt;&amp;gt;" style="edgeStyle=orthogonalEdgeStyle;rounded=0;orthogonalLoop=1;jettySize=auto;html=1;entryX=0.5;entryY=1;entryDx=0;entryDy=0;dashed=1;endArrow=classic;endFill=1;" edge="1" parent="1" source="mYWsddYuptyJ_R3F1crm-19" target="mYWsddYuptyJ_R3F1crm-27">
          <mxGeometry relative="1" as="geometry" />
        </mxCell>
        <mxCell id="mYWsddYuptyJ_R3F1crm-19" value="Send prescription to appropriate pharmacy station" style="ellipse;whiteSpace=wrap;html=1;" vertex="1" parent="1">
          <mxGeometry x="460" y="300" width="110" height="70" as="geometry" />
        </mxCell>
        <mxCell id="mYWsddYuptyJ_R3F1crm-22" value="Check patient files" style="ellipse;whiteSpace=wrap;html=1;" vertex="1" parent="1">
          <mxGeometry x="430" y="730" width="90" height="60" as="geometry" />
        </mxCell>
        <mxCell id="mYWsddYuptyJ_R3F1crm-35" value="&amp;lt;&amp;lt;extends&amp;gt;&amp;gt;" style="edgeStyle=orthogonalEdgeStyle;rounded=0;orthogonalLoop=1;jettySize=auto;html=1;dashed=1;endArrow=classic;endFill=1;" edge="1" parent="1" source="mYWsddYuptyJ_R3F1crm-24" target="mYWsddYuptyJ_R3F1crm-32">
          <mxGeometry relative="1" as="geometry" />
        </mxCell>
        <mxCell id="mYWsddYuptyJ_R3F1crm-38" value="&amp;lt;&amp;lt;extends&amp;gt;&amp;gt;" style="edgeStyle=orthogonalEdgeStyle;rounded=0;orthogonalLoop=1;jettySize=auto;html=1;entryX=1;entryY=0.5;entryDx=0;entryDy=0;endArrow=classic;endFill=1;dashed=1;" edge="1" parent="1" source="mYWsddYuptyJ_R3F1crm-24" target="mYWsddYuptyJ_R3F1crm-36">
          <mxGeometry relative="1" as="geometry">
            <Array as="points">
              <mxPoint x="425" y="580" />
              <mxPoint x="580" y="580" />
              <mxPoint x="580" y="840" />
            </Array>
          </mxGeometry>
        </mxCell>
        <mxCell id="mYWsddYuptyJ_R3F1crm-24" value="Fill order" style="ellipse;whiteSpace=wrap;html=1;" vertex="1" parent="1">
          <mxGeometry x="380" y="510" width="90" height="60" as="geometry" />
        </mxCell>
        <mxCell id="mYWsddYuptyJ_R3F1crm-27" value="Check if ordered drug must be formulated/is off-the-shelf/or narcotics" style="ellipse;whiteSpace=wrap;html=1;" vertex="1" parent="1">
          <mxGeometry x="335" y="240" width="120" height="80" as="geometry" />
        </mxCell>
        <mxCell id="mYWsddYuptyJ_R3F1crm-48" style="edgeStyle=orthogonalEdgeStyle;rounded=0;orthogonalLoop=1;jettySize=auto;html=1;entryX=0;entryY=0.5;entryDx=0;entryDy=0;endArrow=none;endFill=0;" edge="1" parent="1" source="mYWsddYuptyJ_R3F1crm-29" target="mYWsddYuptyJ_R3F1crm-36">
          <mxGeometry relative="1" as="geometry">
            <Array as="points">
              <mxPoint x="245" y="810" />
              <mxPoint x="435" y="810" />
            </Array>
          </mxGeometry>
        </mxCell>
        <mxCell id="mYWsddYuptyJ_R3F1crm-49" style="edgeStyle=orthogonalEdgeStyle;rounded=0;orthogonalLoop=1;jettySize=auto;html=1;entryX=0;entryY=0.5;entryDx=0;entryDy=0;endArrow=none;endFill=0;" edge="1" parent="1" source="mYWsddYuptyJ_R3F1crm-29" target="mYWsddYuptyJ_R3F1crm-22">
          <mxGeometry relative="1" as="geometry" />
        </mxCell>
        <mxCell id="mYWsddYuptyJ_R3F1crm-50" style="edgeStyle=orthogonalEdgeStyle;rounded=0;orthogonalLoop=1;jettySize=auto;html=1;entryX=0;entryY=0.5;entryDx=0;entryDy=0;endArrow=none;endFill=0;" edge="1" parent="1" source="mYWsddYuptyJ_R3F1crm-29" target="mYWsddYuptyJ_R3F1crm-32">
          <mxGeometry relative="1" as="geometry">
            <Array as="points">
              <mxPoint x="245" y="690" />
              <mxPoint x="345" y="690" />
              <mxPoint x="345" y="660" />
            </Array>
          </mxGeometry>
        </mxCell>
        <mxCell id="mYWsddYuptyJ_R3F1crm-51" style="edgeStyle=orthogonalEdgeStyle;rounded=0;orthogonalLoop=1;jettySize=auto;html=1;entryX=0;entryY=0.5;entryDx=0;entryDy=0;endArrow=none;endFill=0;" edge="1" parent="1" source="mYWsddYuptyJ_R3F1crm-29" target="mYWsddYuptyJ_R3F1crm-24">
          <mxGeometry relative="1" as="geometry">
            <Array as="points">
              <mxPoint x="300" y="720" />
              <mxPoint x="300" y="540" />
            </Array>
          </mxGeometry>
        </mxCell>
        <mxCell id="mYWsddYuptyJ_R3F1crm-29" value="Pharmacist" style="shape=umlActor;verticalLabelPosition=bottom;verticalAlign=top;html=1;outlineConnect=0;" vertex="1" parent="1">
          <mxGeometry x="230" y="710" width="30" height="60" as="geometry" />
        </mxCell>
        <mxCell id="mYWsddYuptyJ_R3F1crm-34" value="&amp;lt;&amp;lt;include&amp;gt;&amp;gt;" style="edgeStyle=orthogonalEdgeStyle;rounded=0;orthogonalLoop=1;jettySize=auto;html=1;endArrow=classic;endFill=1;dashed=1;" edge="1" parent="1" source="mYWsddYuptyJ_R3F1crm-32" target="mYWsddYuptyJ_R3F1crm-22">
          <mxGeometry relative="1" as="geometry" />
        </mxCell>
        <mxCell id="mYWsddYuptyJ_R3F1crm-32" value="Review order" style="ellipse;whiteSpace=wrap;html=1;" vertex="1" parent="1">
          <mxGeometry x="430" y="630" width="90" height="60" as="geometry" />
        </mxCell>
        <mxCell id="mYWsddYuptyJ_R3F1crm-36" value="Contact Doctor" style="ellipse;whiteSpace=wrap;html=1;" vertex="1" parent="1">
          <mxGeometry x="435" y="810" width="90" height="60" as="geometry" />
        </mxCell>
        <mxCell id="mYWsddYuptyJ_R3F1crm-41" style="edgeStyle=orthogonalEdgeStyle;rounded=0;orthogonalLoop=1;jettySize=auto;html=1;entryX=0;entryY=0.5;entryDx=0;entryDy=0;endArrow=none;endFill=0;" edge="1" parent="1" source="mYWsddYuptyJ_R3F1crm-39" target="mYWsddYuptyJ_R3F1crm-40">
          <mxGeometry relative="1" as="geometry" />
        </mxCell>
        <mxCell id="mYWsddYuptyJ_R3F1crm-42" style="edgeStyle=orthogonalEdgeStyle;rounded=0;orthogonalLoop=1;jettySize=auto;html=1;entryX=0;entryY=0.5;entryDx=0;entryDy=0;endArrow=none;endFill=0;" edge="1" parent="1" source="mYWsddYuptyJ_R3F1crm-39" target="mYWsddYuptyJ_R3F1crm-36">
          <mxGeometry relative="1" as="geometry">
            <Array as="points">
              <mxPoint x="290" y="610" />
              <mxPoint x="290" y="840" />
            </Array>
          </mxGeometry>
        </mxCell>
        <mxCell id="mYWsddYuptyJ_R3F1crm-39" value="Doctor" style="shape=umlActor;verticalLabelPosition=bottom;verticalAlign=top;html=1;outlineConnect=0;" vertex="1" parent="1">
          <mxGeometry x="230" y="580" width="30" height="60" as="geometry" />
        </mxCell>
        <mxCell id="mYWsddYuptyJ_R3F1crm-40" value="Write another prescription" style="ellipse;whiteSpace=wrap;html=1;" vertex="1" parent="1">
          <mxGeometry x="320" y="580" width="90" height="60" as="geometry" />
        </mxCell>
        <mxCell id="mYWsddYuptyJ_R3F1crm-45" value="" style="endArrow=none;html=1;rounded=0;exitX=0;exitY=0.5;exitDx=0;exitDy=0;entryX=1;entryY=0.5;entryDx=0;entryDy=0;" edge="1" parent="1" source="mYWsddYuptyJ_R3F1crm-6" target="mYWsddYuptyJ_R3F1crm-6">
          <mxGeometry width="50" height="50" relative="1" as="geometry">
            <mxPoint x="400" y="450" as="sourcePoint" />
            <mxPoint x="450" y="400" as="targetPoint" />
          </mxGeometry>
        </mxCell>
        <mxCell id="mYWsddYuptyJ_R3F1crm-46" value="Nurse Station" style="text;html=1;strokeColor=none;fillColor=none;align=center;verticalAlign=middle;whiteSpace=wrap;rounded=0;" vertex="1" parent="1">
          <mxGeometry x="425" y="470" width="60" height="30" as="geometry" />
        </mxCell>
        <mxCell id="mYWsddYuptyJ_R3F1crm-47" value="Hospital" style="text;html=1;strokeColor=none;fillColor=none;align=center;verticalAlign=middle;whiteSpace=wrap;rounded=0;" vertex="1" parent="1">
          <mxGeometry x="430" y="20" width="60" height="30" as="geometry" />
        </mxCell>
        <mxCell id="mYWsddYuptyJ_R3F1crm-57" style="edgeStyle=orthogonalEdgeStyle;rounded=0;orthogonalLoop=1;jettySize=auto;html=1;entryX=-0.015;entryY=0.361;entryDx=0;entryDy=0;entryPerimeter=0;endArrow=block;endFill=0;" edge="1" parent="1" source="mYWsddYuptyJ_R3F1crm-52" target="mYWsddYuptyJ_R3F1crm-24">
          <mxGeometry relative="1" as="geometry" />
        </mxCell>
        <mxCell id="mYWsddYuptyJ_R3F1crm-52" value="Send to lab station" style="ellipse;whiteSpace=wrap;html=1;" vertex="1" parent="1">
          <mxGeometry x="330" y="470" width="70" height="40" as="geometry" />
        </mxCell>
        <mxCell id="mYWsddYuptyJ_R3F1crm-58" style="edgeStyle=orthogonalEdgeStyle;rounded=0;orthogonalLoop=1;jettySize=auto;html=1;endArrow=block;endFill=0;" edge="1" parent="1" source="mYWsddYuptyJ_R3F1crm-53" target="mYWsddYuptyJ_R3F1crm-24">
          <mxGeometry relative="1" as="geometry" />
        </mxCell>
        <mxCell id="mYWsddYuptyJ_R3F1crm-53" value="Send to shelving station" style="ellipse;whiteSpace=wrap;html=1;" vertex="1" parent="1">
          <mxGeometry x="510" y="465" width="70" height="40" as="geometry" />
        </mxCell>
        <mxCell id="mYWsddYuptyJ_R3F1crm-59" style="edgeStyle=orthogonalEdgeStyle;rounded=0;orthogonalLoop=1;jettySize=auto;html=1;endArrow=block;endFill=0;" edge="1" parent="1" source="mYWsddYuptyJ_R3F1crm-56" target="mYWsddYuptyJ_R3F1crm-24">
          <mxGeometry relative="1" as="geometry" />
        </mxCell>
        <mxCell id="mYWsddYuptyJ_R3F1crm-56" value="Send to secure station" style="ellipse;whiteSpace=wrap;html=1;" vertex="1" parent="1">
          <mxGeometry x="500" y="520" width="70" height="40" as="geometry" />
        </mxCell>
      </root>
    </mxGraphModel>
  </diagram>
</mxfile>
